<?xml version="1.0" encoding="UTF-8" standalone="no"?>
<!-- Created with Inkscape (http://www.inkscape.org/) -->

<svg
   xmlns:svg="http://www.w3.org/2000/svg"
   xmlns="http://www.w3.org/2000/svg"
   version="1.1"
   width="744.09448"
   height="1052.3622"
   id="svg2939">
  <defs
     id="defs2941" />
  <g
     id="layer1">
    <path
       d="M 225.71428,472.36218 149.85566,374.38832 26.141718,381.33595 95.878799,278.91453 51.041493,163.40252 170,198.07646 l 96.00296,-78.33799 3.78332,123.8511 104.1704,67.09648 -116.62028,41.87024 -31.62212,119.80589 z"
       id="path3007"
       style="fill:#ffff00;fill-rule:evenodd;stroke:#000000;stroke-width:1px;stroke-linecap:butt;stroke-linejoin:miter;stroke-opacity:1" />
    <path
       d="M 565.71428,669.50504 412.32067,633.07098 295.34599,738.77795 282.5956,581.63321 145.91514,503.04892 l 145.51344,-60.68673 32.50151,-154.27472 102.68264,119.63827 156.7675,-16.76273 -82.05208,134.62725 64.38613,143.91478 z"
       id="path3009"
       style="fill:#ffff00;fill-rule:evenodd;stroke:#000000;stroke-width:1px;stroke-linecap:butt;stroke-linejoin:miter;stroke-opacity:1" />
    <path
       d="M 57.142842,640.93364 280.88852,528.3927 315.02483,280.27521 491.19884,458.29294 737.7213,414.08597 622.85714,636.64791 741.08009,857.444 493.91613,816.97712 320.45947,997.64357 282.5679,750.07172 57.142842,640.93364 z"
       id="path3011"
       style="fill:#ffff00;fill-rule:evenodd;stroke:#000000;stroke-width:1px;stroke-linecap:butt;stroke-linejoin:miter;stroke-opacity:1" />
  </g>
</svg>
